# xmcd CD database file
#
# Track frame offsets:
#	150
#	11274
#	28609
#	44400
#	53293
#	68091
#	82070
#	95765
#	108281
#	122360
#	132579
#	146142
#	158495
#	170926
#	183889
#	197511
#	210609
#	225308
#	239793
#	251214
#	266727
#	280087
#	291332
#	305773
#	316218
#	339126
#
# Disc length: 4645 seconds
#
# Revision: 0
# Processed by: cddbd v1.4PL0 Copyright (c) Steve Scherf et al.
# Submitted via: CDex 1.51
#
DISCID=7712231a
DTITLE=Art Tatum - Elegie
DYEAR=1900
DGENRE=Jazz
TTITLE0=Oh You Crazy Moon
TTITLE1=Over the Rainbow
TTITLE2=Day In Day Out
TTITLE3=All God's Chillun Got Rhythm
TTITLE4=Elegie
TTITLE5=Humoresque
TTITLE6=Sweet Lorraine
TTITLE7=Get Happy
TTITLE8=Lullaby of the Leaves
TTITLE9=Tiger Rag
TTITLE10=Sweet Emaline, My Gal
TTITLE11=Love Me
TTITLE12=Begin the Beguine
TTITLE13=Rosetta
TTITLE14=Indiana
TTITLE15=Wee Baby Blues
TTITLE16=Stompin' at the Savoy
TTITLE17=Last Goodbye Blues
TTITLE18=Battery Bounce
TTITLE19=Lucille
TTITLE20=Rock me, Mama
TTITLE21=Corrine Corrina
TTITLE22=Lonesome Graveyard Blues
TTITLE23=I Got Rhythm
TTITLE24=Mop, Mop
TTITLE25=Esquire Bounce
EXTD=
EXTT0=
EXTT1=
EXTT2=
EXTT3=
EXTT4=
EXTT5=
EXTT6=
EXTT7=
EXTT8=
EXTT9=
EXTT10=
EXTT11=
EXTT12=
EXTT13=
EXTT14=
EXTT15=
EXTT16=
EXTT17=
EXTT18=
EXTT19=
EXTT20=
EXTT21=
EXTT22=
EXTT23=
EXTT24=
EXTT25=
PLAYORDER=
